%TF.GenerationSoftware,KiCad,Pcbnew,10.0.0*%
%TF.CreationDate,2026-08-25T03:22:28-04:00*%
%TF.ProjectId,cansatrecruit,63616e73-6174-4726-9563-727569742e6b,rev?*%
%TF.SameCoordinates,Original*%
%TF.FileFunction,Copper,L1,Top*%
%TF.FilePolarity,Positive*%
%FSLAX46Y46*%
G04 Gerber Fmt 4.6, Leading zero omitted, Abs format (unit mm)*
G04 Created by KiCad (PCBNEW 10.0.0) date 2026-08-25 03:22:28*
%MOMM*%
%LPD*%
G01*
G04 APERTURE LIST*
G04 Aperture macros list*
%AMRoundRect*
0 Rectangle with rounded corners*
0 $1 Rounding radius*
0 $2 $3 $4 $5 $6 $7 $8 $9 X,Y pos of 4 corners*
0 Add a 4 corners polygon primitive as box body*
4,1,4,$2,$3,$4,$5,$6,$7,$8,$9,$2,$3,0*
0 Add four circle primitives for the rounded corners*
1,1,$1+$1,$2,$3*
1,1,$1+$1,$4,$5*
1,1,$1+$1,$6,$7*
1,1,$1+$1,$8,$9*
0 Add four rect primitives between the rounded corners*
20,1,$1+$1,$2,$3,$4,$5,0*
20,1,$1+$1,$4,$5,$6,$7,0*
20,1,$1+$1,$6,$7,$8,$9,0*
20,1,$1+$1,$8,$9,$2,$3,0*%
G04 Aperture macros list end*
%TA.AperFunction,ComponentPad*%
%ADD10R,1.700000X1.700000*%
%TD*%
%TA.AperFunction,ComponentPad*%
%ADD11C,1.700000*%
%TD*%
%TA.AperFunction,SMDPad,CuDef*%
%ADD12RoundRect,0.200000X-0.275000X0.200000X-0.275000X-0.200000X0.275000X-0.200000X0.275000X0.200000X0*%
%TD*%
%TA.AperFunction,SMDPad,CuDef*%
%ADD13R,0.375000X0.350000*%
%TD*%
%TA.AperFunction,SMDPad,CuDef*%
%ADD14R,0.350000X0.375000*%
%TD*%
%TA.AperFunction,SMDPad,CuDef*%
%ADD15RoundRect,0.250000X0.250000X0.475000X-0.250000X0.475000X-0.250000X-0.475000X0.250000X-0.475000X0*%
%TD*%
%TA.AperFunction,SMDPad,CuDef*%
%ADD16RoundRect,0.225000X-0.250000X0.225000X-0.250000X-0.225000X0.250000X-0.225000X0.250000X0.225000X0*%
%TD*%
%TA.AperFunction,SMDPad,CuDef*%
%ADD17RoundRect,0.087500X0.087500X-0.225000X0.087500X0.225000X-0.087500X0.225000X-0.087500X-0.225000X0*%
%TD*%
%TA.AperFunction,SMDPad,CuDef*%
%ADD18RoundRect,0.087500X0.225000X-0.087500X0.225000X0.087500X-0.225000X0.087500X-0.225000X-0.087500X0*%
%TD*%
%TA.AperFunction,ViaPad*%
%ADD19C,0.600000*%
%TD*%
%TA.AperFunction,Conductor*%
%ADD20C,0.200000*%
%TD*%
G04 APERTURE END LIST*
D10*
%TO.P,J2,1,Pin_1_1*%
%TO.N,+3V3*%
X114000000Y-116920000D03*
D11*
%TO.P,J2,2,Pin_2_2*%
%TO.N,GND*%
X114000000Y-119460000D03*
%TO.P,J2,3,Pin_3_3*%
%TO.N,Net-(J2-Pin_3)*%
X114000000Y-122000000D03*
%TO.P,J2,4,Pin_4_4*%
%TO.N,Net-(J2-Pin_4)*%
X114000000Y-124540000D03*
%TD*%
D12*
%TO.P,R1,1*%
%TO.N,+3V3*%
X120000000Y-116675000D03*
%TO.P,R1,2*%
%TO.N,Net-(J2-Pin_3)*%
X120000000Y-118325000D03*
%TD*%
D13*
%TO.P,U1,1,SCL/SPC_1*%
%TO.N,Net-(J2-Pin_4)*%
X133987500Y-118012500D03*
%TO.P,U1,2,NC_2*%
%TO.N,unconnected-(U1-NC-Pad2)*%
X133987500Y-118512500D03*
%TO.P,U1,3,~{CS}_3*%
%TO.N,+3V3*%
X133987500Y-119012500D03*
%TO.P,U1,4,SDA/SDI/SDO_4*%
%TO.N,Net-(J2-Pin_3)*%
X133987500Y-119512500D03*
D14*
%TO.P,U1,5,C1_5*%
%TO.N,Net-(U1-C1)*%
X134500000Y-119525000D03*
%TO.P,U1,6,GND_6*%
%TO.N,GND*%
X135000000Y-119525000D03*
D13*
%TO.P,U1,7,DRDY_7*%
%TO.N,unconnected-(U1-DRDY-Pad7)*%
X135512500Y-119512500D03*
%TO.P,U1,8,GND_8*%
%TO.N,GND*%
X135512500Y-119012500D03*
%TO.P,U1,9,Vdd_9*%
%TO.N,+3V3*%
X135512500Y-118512500D03*
%TO.P,U1,10,Vdd_IO_10*%
X135512500Y-118012500D03*
D14*
%TO.P,U1,11,NC_11*%
%TO.N,unconnected-(U1-NC-Pad11)*%
X135000000Y-118000000D03*
%TO.P,U1,12,NC_12*%
%TO.N,unconnected-(U1-NC-Pad12)*%
X134500000Y-118000000D03*
%TD*%
D15*
%TO.P,C7,1*%
%TO.N,GND*%
X118450000Y-118000000D03*
%TO.P,C7,2*%
%TO.N,+3V3*%
X116550000Y-118000000D03*
%TD*%
D16*
%TO.P,C6,1*%
%TO.N,+3V3*%
X139000000Y-124225000D03*
%TO.P,C6,2*%
%TO.N,GND*%
X139000000Y-125775000D03*
%TD*%
%TO.P,C3,1*%
%TO.N,+3V3*%
X130000000Y-119725000D03*
%TO.P,C3,2*%
%TO.N,GND*%
X130000000Y-121275000D03*
%TD*%
%TO.P,C5,1*%
%TO.N,+3V3*%
X139000000Y-120500000D03*
%TO.P,C5,2*%
%TO.N,GND*%
X139000000Y-122050000D03*
%TD*%
%TO.P,C4,1*%
%TO.N,+3V3*%
X130500000Y-123725000D03*
%TO.P,C4,2*%
%TO.N,GND*%
X130500000Y-125275000D03*
%TD*%
D12*
%TO.P,R2,1*%
%TO.N,+3V3*%
X123000000Y-116675000D03*
%TO.P,R2,2*%
%TO.N,Net-(J2-Pin_4)*%
X123000000Y-118325000D03*
%TD*%
D16*
%TO.P,C1,1*%
%TO.N,Net-(U1-C1)*%
X138775000Y-117000000D03*
%TO.P,C1,2*%
%TO.N,GND*%
X138775000Y-118550000D03*
%TD*%
D17*
%TO.P,U2,1,AP_SDO/AP_AD0_1*%
%TO.N,GND*%
X125750000Y-120662500D03*
%TO.P,U2,2,RESV_2*%
%TO.N,unconnected-(U2-RESV-Pad2)*%
X126250000Y-120662500D03*
%TO.P,U2,3,RESV_3*%
%TO.N,unconnected-(U2-RESV-Pad3)*%
X126750000Y-120662500D03*
%TO.P,U2,4,INT1/INT_4*%
%TO.N,unconnected-(U2-INT1{slash}INT-Pad4)*%
X127250000Y-120662500D03*
D18*
%TO.P,U2,5,VDDIO_5*%
%TO.N,+3V3*%
X127412500Y-120000000D03*
%TO.P,U2,6,GND_6*%
%TO.N,GND*%
X127412500Y-119500000D03*
%TO.P,U2,7,RESV_7*%
X127412500Y-119000000D03*
D17*
%TO.P,U2,8,VDD_8*%
%TO.N,+3V3*%
X127250000Y-118337500D03*
%TO.P,U2,9,INT2/FSYNC/CLKIN_9*%
%TO.N,GND*%
X126750000Y-118337500D03*
%TO.P,U2,10,RESV_10*%
%TO.N,unconnected-(U2-RESV-Pad10)*%
X126250000Y-118337500D03*
%TO.P,U2,11,RESV_11*%
%TO.N,unconnected-(U2-RESV-Pad11)*%
X125750000Y-118337500D03*
D18*
%TO.P,U2,12,AP_CS_12*%
%TO.N,+3V3*%
X125587500Y-119000000D03*
%TO.P,U2,13,AP_SCL/AP_SCLK_13*%
%TO.N,Net-(J2-Pin_4)*%
X125587500Y-119500000D03*
%TO.P,U2,14,AP_SDA/AP_SDIO/AP_SDI_14*%
%TO.N,Net-(J2-Pin_3)*%
X125587500Y-120000000D03*
%TD*%
D16*
%TO.P,C2,1*%
%TO.N,+3V3*%
X130000000Y-116500000D03*
%TO.P,C2,2*%
%TO.N,GND*%
X130000000Y-118050000D03*
%TD*%
D19*
%TO.N,GND*%
X136500000Y-118500000D03*
X132000000Y-120500000D03*
X132000000Y-118462500D03*
X126500000Y-119500000D03*
X124000000Y-122000000D03*
X131500000Y-122500000D03*
X120000000Y-119500000D03*
X118000000Y-120500000D03*
X132500000Y-124500000D03*
X137000000Y-120000000D03*
%TD*%
%TO.N,Net-(J2-Pin_3)*%
D20*
X112450000Y-123224314D02*
X112450000Y-124616346D01*
X133987500Y-119512500D02*
X133987500Y-121461196D01*
X112450000Y-124616346D02*
X113523654Y-125690000D01*
X120000000Y-118325000D02*
X121325000Y-118325000D01*
X130973696Y-124475000D02*
X128699568Y-124475000D01*
X127674568Y-125500000D02*
X128699568Y-124475000D01*
X115000000Y-125500000D02*
X127674568Y-125500000D01*
X114000000Y-122000000D02*
X113674314Y-122000000D01*
X123000000Y-120000000D02*
X125587500Y-120000000D01*
X113674314Y-122000000D02*
X112450000Y-123224314D01*
X115000000Y-125500000D02*
X121750000Y-118750000D01*
X121750000Y-118750000D02*
X123000000Y-120000000D01*
X114810000Y-125690000D02*
X115000000Y-125500000D01*
X121325000Y-118325000D02*
X121750000Y-118750000D01*
X113523654Y-125690000D02*
X114810000Y-125690000D01*
X125549568Y-120000000D02*
X125587500Y-120000000D01*
X133987500Y-121461196D02*
X130973696Y-124475000D01*
%TO.N,GND*%
X139000000Y-125775000D02*
X139000000Y-125448696D01*
X130000000Y-121275000D02*
X131225000Y-121275000D01*
X131725000Y-125275000D02*
X132500000Y-124500000D01*
X114000000Y-119460000D02*
X115040000Y-120500000D01*
X130275000Y-121275000D02*
X131500000Y-122500000D01*
X127049568Y-119000000D02*
X126750000Y-118700432D01*
X139775000Y-124673696D02*
X139775000Y-122825000D01*
X139000000Y-125448696D02*
X139775000Y-124673696D01*
X135512500Y-119012500D02*
X135125000Y-119012500D01*
X137825000Y-119675000D02*
X137825000Y-124273696D01*
X131550000Y-118050000D02*
X132000000Y-118500000D01*
X118500000Y-118000000D02*
X120000000Y-119500000D01*
X138526304Y-124975000D02*
X139473696Y-124975000D01*
X130500000Y-125275000D02*
X131725000Y-125275000D01*
X137500000Y-120000000D02*
X137000000Y-120000000D01*
X124412500Y-122000000D02*
X124000000Y-122000000D01*
X137825000Y-119675000D02*
X137500000Y-120000000D01*
X138775000Y-118725000D02*
X137825000Y-119675000D01*
X139473696Y-124975000D02*
X139775000Y-124673696D01*
X127412500Y-119500000D02*
X127412500Y-119000000D01*
X132000000Y-118500000D02*
X132000000Y-118462500D01*
X139775000Y-122825000D02*
X139000000Y-122050000D01*
X130275000Y-125275000D02*
X130000000Y-125000000D01*
X135987500Y-119012500D02*
X136500000Y-118500000D01*
X131225000Y-121275000D02*
X132000000Y-120500000D01*
X135512500Y-119012500D02*
X135987500Y-119012500D01*
X118450000Y-118000000D02*
X118500000Y-118000000D01*
X138775000Y-118550000D02*
X138775000Y-118725000D01*
X135000000Y-119137500D02*
X135000000Y-119525000D01*
X135125000Y-119012500D02*
X135000000Y-119137500D01*
X130000000Y-118050000D02*
X131550000Y-118050000D01*
X127412500Y-119000000D02*
X127049568Y-119000000D01*
X127412500Y-119500000D02*
X126500000Y-119500000D01*
X125750000Y-120662500D02*
X124412500Y-122000000D01*
X137825000Y-124273696D02*
X138526304Y-124975000D01*
X115040000Y-120500000D02*
X118000000Y-120500000D01*
X126750000Y-118700432D02*
X126750000Y-118337500D01*
X130000000Y-121275000D02*
X130275000Y-121275000D01*
%TO.N,Net-(J2-Pin_4)*%
X114000000Y-124540000D02*
X115202081Y-124540000D01*
X117965256Y-119025000D02*
X117650000Y-118709744D01*
X124500000Y-118775432D02*
X124500000Y-118158883D01*
X119225000Y-119315256D02*
X118934744Y-119025000D01*
X133275000Y-117300000D02*
X129350000Y-117300000D01*
X124500000Y-119500000D02*
X124500000Y-118724568D01*
X119318676Y-117818676D02*
X119512352Y-117625000D01*
X133987500Y-118012500D02*
X133275000Y-117300000D01*
X118934744Y-116975000D02*
X119318676Y-117358932D01*
X119318676Y-117358932D02*
X119318676Y-117818676D01*
X123000000Y-118325000D02*
X124175000Y-119500000D01*
X117650000Y-117290256D02*
X117965256Y-116975000D01*
X129350000Y-117300000D02*
X129325000Y-117325000D01*
X115202081Y-124540000D02*
X119225000Y-120517081D01*
X119225000Y-120517081D02*
X119225000Y-119315256D01*
X118934744Y-119025000D02*
X117965256Y-119025000D01*
X124500000Y-118158883D02*
X125333883Y-117325000D01*
X119512352Y-117625000D02*
X122300000Y-117625000D01*
X125224568Y-119500000D02*
X124500000Y-118775432D01*
X122300000Y-117625000D02*
X123000000Y-118325000D01*
X125587500Y-119500000D02*
X125224568Y-119500000D01*
X124175000Y-119500000D02*
X124500000Y-119500000D01*
X124500000Y-119500000D02*
X125587500Y-119500000D01*
X117650000Y-118709744D02*
X117650000Y-117290256D01*
X117965256Y-116975000D02*
X118934744Y-116975000D01*
X125333883Y-117325000D02*
X129325000Y-117325000D01*
X129325000Y-117325000D02*
X129326304Y-117325000D01*
%TO.N,+3V3*%
X137000000Y-115225000D02*
X136500000Y-115225000D01*
X128274568Y-119725000D02*
X130000000Y-119725000D01*
X127250000Y-118337500D02*
X127612932Y-118337500D01*
X130712500Y-119012500D02*
X133987500Y-119012500D01*
X127250000Y-117974568D02*
X127250000Y-118337500D01*
X113520000Y-117400000D02*
X114000000Y-116920000D01*
X135012500Y-118512500D02*
X134512500Y-119012500D01*
X134512500Y-119012500D02*
X133987500Y-119012500D01*
X140000000Y-119500000D02*
X139000000Y-120500000D01*
X127612932Y-118337500D02*
X128025000Y-118749568D01*
X130000000Y-115225000D02*
X133500000Y-115225000D01*
X137000000Y-115225000D02*
X137025000Y-115200000D01*
X138225000Y-123450000D02*
X138225000Y-121275000D01*
X135512500Y-116212500D02*
X136500000Y-115225000D01*
X123000000Y-115725000D02*
X123500000Y-115225000D01*
X137025000Y-115200000D02*
X140000000Y-115200000D01*
X128025000Y-118749568D02*
X128025000Y-119974568D01*
X123000000Y-116675000D02*
X123000000Y-115725000D01*
X135512500Y-118012500D02*
X135512500Y-118512500D01*
X112000000Y-116054315D02*
X112000000Y-117000000D01*
X123500000Y-115225000D02*
X112829315Y-115225000D01*
X116550000Y-118000000D02*
X115470000Y-116920000D01*
X125275000Y-118725432D02*
X125275000Y-117949568D01*
X127000432Y-117725000D02*
X127250000Y-117974568D01*
X125587500Y-119000000D02*
X125549568Y-119000000D01*
X128025000Y-119974568D02*
X127725000Y-120274568D01*
X128000000Y-115225000D02*
X123500000Y-115225000D01*
X115470000Y-116920000D02*
X114000000Y-116920000D01*
X140000000Y-115200000D02*
X140000000Y-119500000D01*
X125587500Y-119000000D02*
X125325000Y-119000000D01*
X130000000Y-116500000D02*
X130000000Y-115225000D01*
X126000000Y-117725000D02*
X127000432Y-117725000D01*
X112829315Y-115225000D02*
X112000000Y-116054315D01*
X136500000Y-115225000D02*
X133500000Y-115225000D01*
X127825432Y-121050432D02*
X130500000Y-123725000D01*
X135512500Y-118512500D02*
X135012500Y-118512500D01*
X135512500Y-118012500D02*
X135512500Y-116212500D01*
X112400000Y-117400000D02*
X113520000Y-117400000D01*
X127725000Y-121050432D02*
X127725000Y-120274568D01*
X127450432Y-120000000D02*
X127412500Y-120000000D01*
X125275000Y-117949568D02*
X125499568Y-117725000D01*
X128025000Y-119974568D02*
X128274568Y-119725000D01*
X112000000Y-117000000D02*
X112400000Y-117400000D01*
X120000000Y-116675000D02*
X123000000Y-116675000D01*
X130000000Y-115225000D02*
X128000000Y-115225000D01*
X127725000Y-121050432D02*
X127825432Y-121050432D01*
X130000000Y-119725000D02*
X130712500Y-119012500D01*
X125499568Y-117725000D02*
X126000000Y-117725000D01*
X127725000Y-120274568D02*
X127450432Y-120000000D01*
X139000000Y-124225000D02*
X138225000Y-123450000D01*
X138225000Y-121275000D02*
X139000000Y-120500000D01*
X125549568Y-119000000D02*
X125275000Y-118725432D01*
%TO.N,Net-(U1-C1)*%
X138775000Y-117225000D02*
X135987500Y-120012500D01*
X135987500Y-120012500D02*
X134512500Y-120012500D01*
X134500000Y-120000000D02*
X134500000Y-119525000D01*
X138775000Y-117000000D02*
X138775000Y-117225000D01*
X134512500Y-120012500D02*
X134500000Y-120000000D01*
%TD*%
M02*
