%TF.GenerationSoftware,KiCad,Pcbnew,10.0.0*%
%TF.CreationDate,2026-08-25T03:22:28-04:00*%
%TF.ProjectId,cansatrecruit,63616e73-6174-4726-9563-727569742e6b,rev?*%
%TF.SameCoordinates,Original*%
%TF.FileFunction,Copper,L2,Bot*%
%TF.FilePolarity,Positive*%
%FSLAX46Y46*%
G04 Gerber Fmt 4.6, Leading zero omitted, Abs format (unit mm)*
G04 Created by KiCad (PCBNEW 10.0.0) date 2026-08-25 03:22:28*
%MOMM*%
%LPD*%
G01*
G04 APERTURE LIST*
%TA.AperFunction,ComponentPad*%
%ADD10R,1.700000X1.700000*%
%TD*%
%TA.AperFunction,ComponentPad*%
%ADD11C,1.700000*%
%TD*%
%TA.AperFunction,ViaPad*%
%ADD12C,0.600000*%
%TD*%
%TA.AperFunction,Conductor*%
%ADD13C,0.200000*%
%TD*%
G04 APERTURE END LIST*
D10*
%TO.P,J2,1,Pin_1_1*%
%TO.N,+3V3*%
X114000000Y-116920000D03*
D11*
%TO.P,J2,2,Pin_2_2*%
%TO.N,GND*%
X114000000Y-119460000D03*
%TO.P,J2,3,Pin_3_3*%
%TO.N,Net-(J2-Pin_3)*%
X114000000Y-122000000D03*
%TO.P,J2,4,Pin_4_4*%
%TO.N,Net-(J2-Pin_4)*%
X114000000Y-124540000D03*
%TD*%
D12*
%TO.N,GND*%
X136500000Y-118500000D03*
X132000000Y-120500000D03*
X132000000Y-118462500D03*
X126500000Y-119500000D03*
X124000000Y-122000000D03*
X131500000Y-122500000D03*
X120000000Y-119500000D03*
X118000000Y-120500000D03*
X132500000Y-124500000D03*
X137000000Y-120000000D03*
%TD*%
%TO.N,GND*%
D13*
X136500000Y-119500000D02*
X137000000Y-120000000D01*
X136500000Y-118500000D02*
X136500000Y-119500000D01*
X118000000Y-120500000D02*
X119000000Y-120500000D01*
X130000000Y-121000000D02*
X130000000Y-121500000D01*
X132500000Y-124500000D02*
X131500000Y-123500000D01*
X131500000Y-123500000D02*
X131500000Y-122500000D01*
X126500000Y-119500000D02*
X125500000Y-120500000D01*
X119000000Y-120500000D02*
X120000000Y-119500000D01*
X124000000Y-121500000D02*
X124000000Y-122000000D01*
X132000000Y-118462500D02*
X132000000Y-120500000D01*
X125500000Y-120500000D02*
X125000000Y-120500000D01*
X125000000Y-120500000D02*
X124000000Y-121500000D01*
%TD*%
%TA.AperFunction,Conductor*%
%TO.N,GND*%
G36*
X157377078Y-113498931D02*
G01*
X157443944Y-113519197D01*
X157489238Y-113572397D01*
X157500000Y-113622926D01*
X157500000Y-131876373D01*
X157480315Y-131943412D01*
X157427511Y-131989167D01*
X157376374Y-132000372D01*
X100181762Y-132172683D01*
X100114663Y-132153201D01*
X100068749Y-132100535D01*
X100057389Y-132049058D01*
X100057242Y-132000372D01*
X100046376Y-128393713D01*
X104649500Y-128393713D01*
X104649500Y-128606287D01*
X104682754Y-128816243D01*
X104703402Y-128879792D01*
X104748444Y-129018414D01*
X104844951Y-129207820D01*
X104969890Y-129379786D01*
X105120213Y-129530109D01*
X105292179Y-129655048D01*
X105292181Y-129655049D01*
X105292184Y-129655051D01*
X105481588Y-129751557D01*
X105683757Y-129817246D01*
X105893713Y-129850500D01*
X105893714Y-129850500D01*
X106106286Y-129850500D01*
X106106287Y-129850500D01*
X106316243Y-129817246D01*
X106518412Y-129751557D01*
X106707816Y-129655051D01*
X106729789Y-129639086D01*
X106879786Y-129530109D01*
X106879788Y-129530106D01*
X106879792Y-129530104D01*
X107030104Y-129379792D01*
X107030106Y-129379788D01*
X107030109Y-129379786D01*
X107155048Y-129207820D01*
X107155047Y-129207820D01*
X107155051Y-129207816D01*
X107251557Y-129018412D01*
X107317246Y-128816243D01*
X107350500Y-128606287D01*
X107350500Y-128393713D01*
X107317246Y-128183757D01*
X107251557Y-127981588D01*
X107206783Y-127893713D01*
X150149500Y-127893713D01*
X150149500Y-128106286D01*
X150182753Y-128316239D01*
X150248444Y-128518414D01*
X150344951Y-128707820D01*
X150469890Y-128879786D01*
X150620213Y-129030109D01*
X150792179Y-129155048D01*
X150792181Y-129155049D01*
X150792184Y-129155051D01*
X150981588Y-129251557D01*
X151183757Y-129317246D01*
X151393713Y-129350500D01*
X151393714Y-129350500D01*
X151606286Y-129350500D01*
X151606287Y-129350500D01*
X151816243Y-129317246D01*
X152018412Y-129251557D01*
X152207816Y-129155051D01*
X152229789Y-129139086D01*
X152379786Y-129030109D01*
X152379788Y-129030106D01*
X152379792Y-129030104D01*
X152530104Y-128879792D01*
X152530106Y-128879788D01*
X152530109Y-128879786D01*
X152655048Y-128707820D01*
X152655047Y-128707820D01*
X152655051Y-128707816D01*
X152751557Y-128518412D01*
X152817246Y-128316243D01*
X152850500Y-128106287D01*
X152850500Y-127893713D01*
X152817246Y-127683757D01*
X152751557Y-127481588D01*
X152655051Y-127292184D01*
X152655049Y-127292181D01*
X152655048Y-127292179D01*
X152530109Y-127120213D01*
X152379786Y-126969890D01*
X152207820Y-126844951D01*
X152018414Y-126748444D01*
X152018413Y-126748443D01*
X152018412Y-126748443D01*
X151816243Y-126682754D01*
X151816241Y-126682753D01*
X151816240Y-126682753D01*
X151654957Y-126657208D01*
X151606287Y-126649500D01*
X151393713Y-126649500D01*
X151345042Y-126657208D01*
X151183760Y-126682753D01*
X150981585Y-126748444D01*
X150792179Y-126844951D01*
X150620213Y-126969890D01*
X150469890Y-127120213D01*
X150344951Y-127292179D01*
X150248444Y-127481585D01*
X150182753Y-127683760D01*
X150149500Y-127893713D01*
X107206783Y-127893713D01*
X107155051Y-127792184D01*
X107147023Y-127781134D01*
X107030109Y-127620213D01*
X106879786Y-127469890D01*
X106707820Y-127344951D01*
X106518414Y-127248444D01*
X106518413Y-127248443D01*
X106518412Y-127248443D01*
X106316243Y-127182754D01*
X106316241Y-127182753D01*
X106316240Y-127182753D01*
X106154957Y-127157208D01*
X106106287Y-127149500D01*
X105893713Y-127149500D01*
X105845042Y-127157208D01*
X105683760Y-127182753D01*
X105481585Y-127248444D01*
X105292179Y-127344951D01*
X105120213Y-127469890D01*
X104969890Y-127620213D01*
X104844951Y-127792179D01*
X104748444Y-127981585D01*
X104682753Y-128183760D01*
X104661771Y-128316239D01*
X104649500Y-128393713D01*
X100046376Y-128393713D01*
X100011730Y-116893713D01*
X103649500Y-116893713D01*
X103649500Y-117106286D01*
X103682753Y-117316239D01*
X103748444Y-117518414D01*
X103844951Y-117707820D01*
X103969890Y-117879786D01*
X104120213Y-118030109D01*
X104292179Y-118155048D01*
X104292181Y-118155049D01*
X104292184Y-118155051D01*
X104481588Y-118251557D01*
X104683757Y-118317246D01*
X104893713Y-118350500D01*
X104893714Y-118350500D01*
X105106286Y-118350500D01*
X105106287Y-118350500D01*
X105316243Y-118317246D01*
X105518412Y-118251557D01*
X105707816Y-118155051D01*
X105745676Y-118127544D01*
X105879786Y-118030109D01*
X105879788Y-118030106D01*
X105879792Y-118030104D01*
X106030104Y-117879792D01*
X106030106Y-117879788D01*
X106030109Y-117879786D01*
X106155048Y-117707820D01*
X106155047Y-117707820D01*
X106155051Y-117707816D01*
X106251557Y-117518412D01*
X106317246Y-117316243D01*
X106350500Y-117106287D01*
X106350500Y-116893713D01*
X106317246Y-116683757D01*
X106251557Y-116481588D01*
X106155051Y-116292184D01*
X106155049Y-116292181D01*
X106155048Y-116292179D01*
X106030109Y-116120213D01*
X105932031Y-116022135D01*
X112649500Y-116022135D01*
X112649500Y-117817870D01*
X112649501Y-117817876D01*
X112655908Y-117877483D01*
X112706202Y-118012328D01*
X112706206Y-118012335D01*
X112792452Y-118127544D01*
X112792455Y-118127547D01*
X112907664Y-118213793D01*
X112907671Y-118213797D01*
X112952618Y-118230561D01*
X113042517Y-118264091D01*
X113102127Y-118270500D01*
X113112685Y-118270499D01*
X113179723Y-118290179D01*
X113200372Y-118306818D01*
X113870591Y-118977037D01*
X113807007Y-118994075D01*
X113692993Y-119059901D01*
X113599901Y-119152993D01*
X113534075Y-119267007D01*
X113517037Y-119330591D01*
X112884728Y-118698282D01*
X112884727Y-118698282D01*
X112845380Y-118752439D01*
X112748904Y-118941782D01*
X112683242Y-119143869D01*
X112683242Y-119143872D01*
X112650000Y-119353753D01*
X112650000Y-119566246D01*
X112683242Y-119776127D01*
X112683242Y-119776130D01*
X112748904Y-119978217D01*
X112845375Y-120167550D01*
X112884728Y-120221716D01*
X113517037Y-119589408D01*
X113534075Y-119652993D01*
X113599901Y-119767007D01*
X113692993Y-119860099D01*
X113807007Y-119925925D01*
X113870590Y-119942962D01*
X113238282Y-120575269D01*
X113238282Y-120575270D01*
X113292452Y-120614626D01*
X113292451Y-120614626D01*
X113301495Y-120619234D01*
X113352292Y-120667208D01*
X113369087Y-120735029D01*
X113346550Y-120801164D01*
X113301499Y-120840202D01*
X113292182Y-120844949D01*
X113120213Y-120969890D01*
X112969890Y-121120213D01*
X112844951Y-121292179D01*
X112748444Y-121481585D01*
X112682753Y-121683760D01*
X112649500Y-121893713D01*
X112649500Y-122106286D01*
X112682753Y-122316239D01*
X112748444Y-122518414D01*
X112844951Y-122707820D01*
X112969890Y-122879786D01*
X113120213Y-123030109D01*
X113292182Y-123155050D01*
X113300946Y-123159516D01*
X113351742Y-123207491D01*
X113368536Y-123275312D01*
X113345998Y-123341447D01*
X113300946Y-123380484D01*
X113292182Y-123384949D01*
X113120213Y-123509890D01*
X112969890Y-123660213D01*
X112844951Y-123832179D01*
X112748444Y-124021585D01*
X112682753Y-124223760D01*
X112649500Y-124433713D01*
X112649500Y-124646286D01*
X112682753Y-124856239D01*
X112748444Y-125058414D01*
X112844951Y-125247820D01*
X112969890Y-125419786D01*
X113120213Y-125570109D01*
X113292179Y-125695048D01*
X113292181Y-125695049D01*
X113292184Y-125695051D01*
X113481588Y-125791557D01*
X113683757Y-125857246D01*
X113893713Y-125890500D01*
X113893714Y-125890500D01*
X114106286Y-125890500D01*
X114106287Y-125890500D01*
X114316243Y-125857246D01*
X114518412Y-125791557D01*
X114707816Y-125695051D01*
X114729789Y-125679086D01*
X114879786Y-125570109D01*
X114879788Y-125570106D01*
X114879792Y-125570104D01*
X115030104Y-125419792D01*
X115030106Y-125419788D01*
X115030109Y-125419786D01*
X115155048Y-125247820D01*
X115155047Y-125247820D01*
X115155051Y-125247816D01*
X115251557Y-125058412D01*
X115317246Y-124856243D01*
X115350500Y-124646287D01*
X115350500Y-124433713D01*
X115317246Y-124223757D01*
X115251557Y-124021588D01*
X115155051Y-123832184D01*
X115155049Y-123832181D01*
X115155048Y-123832179D01*
X115030109Y-123660213D01*
X114879786Y-123509890D01*
X114707820Y-123384951D01*
X114707115Y-123384591D01*
X114699054Y-123380485D01*
X114648259Y-123332512D01*
X114631463Y-123264692D01*
X114653999Y-123198556D01*
X114699054Y-123159515D01*
X114707816Y-123155051D01*
X114729789Y-123139086D01*
X114879786Y-123030109D01*
X114879788Y-123030106D01*
X114879792Y-123030104D01*
X115030104Y-122879792D01*
X115030106Y-122879788D01*
X115030109Y-122879786D01*
X115155048Y-122707820D01*
X115155047Y-122707820D01*
X115155051Y-122707816D01*
X115251557Y-122518412D01*
X115317246Y-122316243D01*
X115350500Y-122106287D01*
X115350500Y-121893713D01*
X115317246Y-121683757D01*
X115251557Y-121481588D01*
X115155051Y-121292184D01*
X115155049Y-121292181D01*
X115155048Y-121292179D01*
X115030109Y-121120213D01*
X114879786Y-120969890D01*
X114707817Y-120844949D01*
X114698504Y-120840204D01*
X114647707Y-120792230D01*
X114630912Y-120724409D01*
X114653449Y-120658274D01*
X114698507Y-120619232D01*
X114707555Y-120614622D01*
X114761716Y-120575270D01*
X114761717Y-120575270D01*
X114129408Y-119942962D01*
X114192993Y-119925925D01*
X114307007Y-119860099D01*
X114400099Y-119767007D01*
X114465925Y-119652993D01*
X114482962Y-119589409D01*
X115115270Y-120221717D01*
X115115270Y-120221716D01*
X115154622Y-120167554D01*
X115251095Y-119978217D01*
X115316757Y-119776130D01*
X115316757Y-119776127D01*
X115350000Y-119566246D01*
X115350000Y-119353753D01*
X115316757Y-119143872D01*
X115316757Y-119143869D01*
X115251095Y-118941782D01*
X115154624Y-118752449D01*
X115115270Y-118698282D01*
X115115269Y-118698282D01*
X114482962Y-119330590D01*
X114465925Y-119267007D01*
X114400099Y-119152993D01*
X114307007Y-119059901D01*
X114192993Y-118994075D01*
X114129409Y-118977037D01*
X114799627Y-118306818D01*
X114860950Y-118273333D01*
X114887307Y-118270499D01*
X114897872Y-118270499D01*
X114957483Y-118264091D01*
X115092331Y-118213796D01*
X115207546Y-118127546D01*
X115293796Y-118012331D01*
X115338038Y-117893713D01*
X150649500Y-117893713D01*
X150649500Y-118106286D01*
X150682753Y-118316239D01*
X150748444Y-118518414D01*
X150844951Y-118707820D01*
X150969890Y-118879786D01*
X151120213Y-119030109D01*
X151292179Y-119155048D01*
X151292181Y-119155049D01*
X151292184Y-119155051D01*
X151481588Y-119251557D01*
X151683757Y-119317246D01*
X151893713Y-119350500D01*
X151893714Y-119350500D01*
X152106286Y-119350500D01*
X152106287Y-119350500D01*
X152316243Y-119317246D01*
X152518412Y-119251557D01*
X152707816Y-119155051D01*
X152838780Y-119059901D01*
X152879786Y-119030109D01*
X152879788Y-119030106D01*
X152879792Y-119030104D01*
X153030104Y-118879792D01*
X153030106Y-118879788D01*
X153030109Y-118879786D01*
X153155048Y-118707820D01*
X153155047Y-118707820D01*
X153155051Y-118707816D01*
X153251557Y-118518412D01*
X153317246Y-118316243D01*
X153350500Y-118106287D01*
X153350500Y-117893713D01*
X153317246Y-117683757D01*
X153251557Y-117481588D01*
X153155051Y-117292184D01*
X153155049Y-117292181D01*
X153155048Y-117292179D01*
X153030109Y-117120213D01*
X152879786Y-116969890D01*
X152707820Y-116844951D01*
X152518414Y-116748444D01*
X152518413Y-116748443D01*
X152518412Y-116748443D01*
X152316243Y-116682754D01*
X152316241Y-116682753D01*
X152316240Y-116682753D01*
X152154957Y-116657208D01*
X152106287Y-116649500D01*
X151893713Y-116649500D01*
X151845042Y-116657208D01*
X151683760Y-116682753D01*
X151481585Y-116748444D01*
X151292179Y-116844951D01*
X151120213Y-116969890D01*
X150969890Y-117120213D01*
X150844951Y-117292179D01*
X150748444Y-117481585D01*
X150682753Y-117683760D01*
X150649500Y-117893713D01*
X115338038Y-117893713D01*
X115344091Y-117877483D01*
X115350500Y-117817873D01*
X115350499Y-116022128D01*
X115344091Y-115962517D01*
X115293796Y-115827669D01*
X115293795Y-115827668D01*
X115293793Y-115827664D01*
X115207547Y-115712455D01*
X115207544Y-115712452D01*
X115092335Y-115626206D01*
X115092328Y-115626202D01*
X114957482Y-115575908D01*
X114957483Y-115575908D01*
X114897883Y-115569501D01*
X114897881Y-115569500D01*
X114897873Y-115569500D01*
X114897864Y-115569500D01*
X113102129Y-115569500D01*
X113102123Y-115569501D01*
X113042516Y-115575908D01*
X112907671Y-115626202D01*
X112907664Y-115626206D01*
X112792455Y-115712452D01*
X112792452Y-115712455D01*
X112706206Y-115827664D01*
X112706202Y-115827671D01*
X112655908Y-115962517D01*
X112649501Y-116022116D01*
X112649501Y-116022123D01*
X112649500Y-116022135D01*
X105932031Y-116022135D01*
X105879786Y-115969890D01*
X105707820Y-115844951D01*
X105518414Y-115748444D01*
X105518413Y-115748443D01*
X105518412Y-115748443D01*
X105316243Y-115682754D01*
X105316241Y-115682753D01*
X105316240Y-115682753D01*
X105154957Y-115657208D01*
X105106287Y-115649500D01*
X104893713Y-115649500D01*
X104845042Y-115657208D01*
X104683760Y-115682753D01*
X104481585Y-115748444D01*
X104292179Y-115844951D01*
X104120213Y-115969890D01*
X103969890Y-116120213D01*
X103844951Y-116292179D01*
X103748444Y-116481585D01*
X103682753Y-116683760D01*
X103649500Y-116893713D01*
X100011730Y-116893713D01*
X100000377Y-113125455D01*
X100019859Y-113058360D01*
X100072525Y-113012446D01*
X100125449Y-113001090D01*
X157377078Y-113498931D01*
G37*
%TD.AperFunction*%
%TD*%
M02*
