%TF.GenerationSoftware,KiCad,Pcbnew,10.0.0*%
%TF.CreationDate,2026-08-25T03:22:28-04:00*%
%TF.ProjectId,cansatrecruit,63616e73-6174-4726-9563-727569742e6b,rev?*%
%TF.SameCoordinates,Original*%
%TF.FileFunction,Soldermask,Top*%
%TF.FilePolarity,Negative*%
%FSLAX46Y46*%
G04 Gerber Fmt 4.6, Leading zero omitted, Abs format (unit mm)*
G04 Created by KiCad (PCBNEW 10.0.0) date 2026-08-25 03:22:28*
%MOMM*%
%LPD*%
G01*
G04 APERTURE LIST*
G04 Aperture macros list*
%AMRoundRect*
0 Rectangle with rounded corners*
0 $1 Rounding radius*
0 $2 $3 $4 $5 $6 $7 $8 $9 X,Y pos of 4 corners*
0 Add a 4 corners polygon primitive as box body*
4,1,4,$2,$3,$4,$5,$6,$7,$8,$9,$2,$3,0*
0 Add four circle primitives for the rounded corners*
1,1,$1+$1,$2,$3*
1,1,$1+$1,$4,$5*
1,1,$1+$1,$6,$7*
1,1,$1+$1,$8,$9*
0 Add four rect primitives between the rounded corners*
20,1,$1+$1,$2,$3,$4,$5,0*
20,1,$1+$1,$4,$5,$6,$7,0*
20,1,$1+$1,$6,$7,$8,$9,0*
20,1,$1+$1,$8,$9,$2,$3,0*%
G04 Aperture macros list end*
%ADD10R,1.700000X1.700000*%
%ADD11C,1.700000*%
%ADD12RoundRect,0.200000X-0.275000X0.200000X-0.275000X-0.200000X0.275000X-0.200000X0.275000X0.200000X0*%
%ADD13R,0.375000X0.350000*%
%ADD14R,0.350000X0.375000*%
%ADD15RoundRect,0.250000X0.250000X0.475000X-0.250000X0.475000X-0.250000X-0.475000X0.250000X-0.475000X0*%
%ADD16C,2.200000*%
%ADD17RoundRect,0.225000X-0.250000X0.225000X-0.250000X-0.225000X0.250000X-0.225000X0.250000X0.225000X0*%
%ADD18RoundRect,0.087500X0.087500X-0.225000X0.087500X0.225000X-0.087500X0.225000X-0.087500X-0.225000X0*%
%ADD19RoundRect,0.087500X0.225000X-0.087500X0.225000X0.087500X-0.225000X0.087500X-0.225000X-0.087500X0*%
G04 APERTURE END LIST*
D10*
%TO.C,J2*%
X114000000Y-116920000D03*
D11*
X114000000Y-119460000D03*
X114000000Y-122000000D03*
X114000000Y-124540000D03*
%TD*%
D12*
%TO.C,R1*%
X120000000Y-116675000D03*
X120000000Y-118325000D03*
%TD*%
D13*
%TO.C,U1*%
X133987500Y-118012500D03*
X133987500Y-118512500D03*
X133987500Y-119012500D03*
X133987500Y-119512500D03*
D14*
X134500000Y-119525000D03*
X135000000Y-119525000D03*
D13*
X135512500Y-119512500D03*
X135512500Y-119012500D03*
X135512500Y-118512500D03*
X135512500Y-118012500D03*
D14*
X135000000Y-118000000D03*
X134500000Y-118000000D03*
%TD*%
D15*
%TO.C,C7*%
X118450000Y-118000000D03*
X116550000Y-118000000D03*
%TD*%
D16*
%TO.C,REF\u002A\u002A*%
X105000000Y-117000000D03*
%TD*%
D17*
%TO.C,C6*%
X139000000Y-124225000D03*
X139000000Y-125775000D03*
%TD*%
D16*
%TO.C,REF\u002A\u002A*%
X151500000Y-128000000D03*
%TD*%
D17*
%TO.C,C3*%
X130000000Y-119725000D03*
X130000000Y-121275000D03*
%TD*%
%TO.C,C5*%
X139000000Y-120500000D03*
X139000000Y-122050000D03*
%TD*%
%TO.C,C4*%
X130500000Y-123725000D03*
X130500000Y-125275000D03*
%TD*%
D12*
%TO.C,R2*%
X123000000Y-116675000D03*
X123000000Y-118325000D03*
%TD*%
D17*
%TO.C,C1*%
X138775000Y-117000000D03*
X138775000Y-118550000D03*
%TD*%
D18*
%TO.C,U2*%
X125750000Y-120662500D03*
X126250000Y-120662500D03*
X126750000Y-120662500D03*
X127250000Y-120662500D03*
D19*
X127412500Y-120000000D03*
X127412500Y-119500000D03*
X127412500Y-119000000D03*
D18*
X127250000Y-118337500D03*
X126750000Y-118337500D03*
X126250000Y-118337500D03*
X125750000Y-118337500D03*
D19*
X125587500Y-119000000D03*
X125587500Y-119500000D03*
X125587500Y-120000000D03*
%TD*%
D17*
%TO.C,C2*%
X130000000Y-116500000D03*
X130000000Y-118050000D03*
%TD*%
D16*
%TO.C,REF\u002A\u002A*%
X152000000Y-118000000D03*
%TD*%
%TO.C,REF\u002A\u002A*%
X106000000Y-128500000D03*
%TD*%
M02*
